<?xml version="1.0" encoding="utf-8"?>
<!-- Generator: Adobe Illustrator 16.0.0, SVG Export Plug-In . SVG Version: 6.00 Build 0)  -->
<!DOCTYPE svg PUBLIC "-//W3C//DTD SVG 1.1//EN" "http://www.w3.org/Graphics/SVG/1.1/DTD/svg11.dtd">
<svg version="1.1" id="Layer_1" xmlns="http://www.w3.org/2000/svg" xmlns:xlink="http://www.w3.org/1999/xlink" x="0px" y="0px"
	 width="250px" height="250px" viewBox="0 0 250 250" enable-background="new 0 0 250 250" xml:space="preserve">
<g>
	<rect x="39.218" y="179.973" fill="#6D6E71" width="68.624" height="6.717"/>
	<rect x="121.639" y="179.9" fill="#6D6E71" width="6.718" height="20.586"/>
	<rect x="142.229" y="179.9" fill="#6D6E71" width="6.72" height="20.586"/>
	<rect x="162.816" y="179.9" fill="#6D6E71" width="6.719" height="20.586"/>
	<rect x="183.4" y="179.9" fill="#6D6E71" width="6.719" height="20.586"/>
	<rect x="203.992" y="179.9" fill="#6D6E71" width="6.718" height="20.586"/>
	<path fill="#6D6E71" d="M231.297,221.146V119.564l-48.326,24.165l-6.755-121.594H142.43l-6.938,111.02l-21.238,10.617
		l-6.723-90.754h-33.65l-6.966,80.114l-48.212,24.105v63.91h-3.504v6.719h219.602v-6.719H231.297z M148.743,28.853h21.116
		l0.39,7.008h-21.944L148.743,28.853z M147.887,42.578h22.735l0.39,7.006h-23.564L147.887,42.578z M147.027,56.302h24.355
		l5.039,90.7l-13.751,6.875v-34.313l-20.229,10.116L147.027,56.302z M80.042,59.735h21.251l0.519,7.005H79.433L80.042,59.735z
		 M78.849,73.458h23.46l0.52,7.007h-24.59L78.849,73.458z M77.655,87.185h25.671l4.432,59.834l-13.711,6.856v-34.313l-20.08,10.041
		L77.655,87.185z M39.29,221.146H25.421v-7.004H39.29V221.146z M101.052,221.146H46.008v-24.16h55.043L101.052,221.146
		L101.052,221.146z M224.578,221.146H107.771v-7.004h116.808L224.578,221.146L224.578,221.146z M224.578,207.422H107.771v-17.156
		H39.29v17.156H25.421v-46.033l61.907-30.953v34.313l68.625-34.313v34.313l68.625-34.313V207.422z"/>
</g>
</svg>
